<mxfile host="Electron" modified="2024-04-02T07:10:03.144Z" agent="Mozilla/5.0 (Macintosh; Intel Mac OS X 10_15_7) AppleWebKit/537.36 (KHTML, like Gecko) draw.io/23.1.5 Chrome/120.0.6099.109 Electron/28.1.0 Safari/537.36" etag="s67QfNt39lShTzzqfHge" version="23.1.5" type="device">
  <diagram name="Page-1" id="63VMCte3nZv9NsJSDuLv">
    <mxGraphModel dx="2472" dy="1547" grid="1" gridSize="10" guides="1" tooltips="1" connect="1" arrows="1" fold="1" page="1" pageScale="1" pageWidth="827" pageHeight="1169" math="0" shadow="0">
      <root>
        <mxCell id="0" />
        <mxCell id="1" parent="0" />
        <mxCell id="tFIEXjJvMCMqe_9Ap2Vx-69" value="" style="rounded=1;whiteSpace=wrap;html=1;arcSize=2;imageHeight=24;" vertex="1" parent="1">
          <mxGeometry x="100" y="30" width="560" height="530" as="geometry" />
        </mxCell>
        <mxCell id="tFIEXjJvMCMqe_9Ap2Vx-62" value="" style="rounded=1;whiteSpace=wrap;html=1;arcSize=2;imageHeight=24;" vertex="1" parent="1">
          <mxGeometry x="-800" y="198" width="350" height="332" as="geometry" />
        </mxCell>
        <mxCell id="tFIEXjJvMCMqe_9Ap2Vx-22" value="" style="rounded=1;whiteSpace=wrap;html=1;arcSize=2;imageHeight=24;align=left;horizontal=0;imageVerticalAlign=top;fillColor=#d5e8d4;strokeColor=#82b366;" vertex="1" parent="1">
          <mxGeometry x="-790" y="325" width="150" height="85" as="geometry" />
        </mxCell>
        <mxCell id="tFIEXjJvMCMqe_9Ap2Vx-23" value="Worker" style="text;html=1;align=center;verticalAlign=middle;whiteSpace=wrap;rounded=0;fontFamily=Roboto;" vertex="1" parent="1">
          <mxGeometry x="-790" y="325" width="60" height="30" as="geometry" />
        </mxCell>
        <mxCell id="FYHPnag68zxIwUbDfZCj-71" value="" style="rounded=1;whiteSpace=wrap;html=1;arcSize=2;imageHeight=24;align=left;fillColor=#d5e8d4;strokeColor=#82b366;" parent="1" vertex="1">
          <mxGeometry x="120" y="360" width="145" height="180" as="geometry" />
        </mxCell>
        <mxCell id="FYHPnag68zxIwUbDfZCj-4" value="" style="rounded=1;whiteSpace=wrap;html=1;arcSize=2;imageHeight=24;align=left;fillColor=#ffe6cc;strokeColor=#d79b00;" parent="1" vertex="1">
          <mxGeometry x="197.5" y="61" width="145" height="180" as="geometry" />
        </mxCell>
        <mxCell id="FYHPnag68zxIwUbDfZCj-54" value="" style="endArrow=none;html=1;rounded=0;strokeWidth=2;" parent="1" edge="1">
          <mxGeometry width="50" height="50" relative="1" as="geometry">
            <mxPoint x="150" y="300" as="sourcePoint" />
            <mxPoint x="610" y="300" as="targetPoint" />
          </mxGeometry>
        </mxCell>
        <mxCell id="FYHPnag68zxIwUbDfZCj-56" value="" style="aspect=fixed;sketch=0;html=1;dashed=0;whitespace=wrap;fillColor=#2875E2;strokeColor=#ffffff;points=[[0.005,0.63,0],[0.1,0.2,0],[0.9,0.2,0],[0.5,0,0],[0.995,0.63,0],[0.72,0.99,0],[0.5,1,0],[0.28,0.99,0]];shape=mxgraph.kubernetes.icon2;kubernetesLabel=1;prIcon=sched" parent="1" vertex="1">
          <mxGeometry x="272.5" y="93" width="50" height="48" as="geometry" />
        </mxCell>
        <mxCell id="FYHPnag68zxIwUbDfZCj-57" value="" style="aspect=fixed;sketch=0;html=1;dashed=0;whitespace=wrap;fillColor=#2875E2;strokeColor=#ffffff;points=[[0.005,0.63,0],[0.1,0.2,0],[0.9,0.2,0],[0.5,0,0],[0.995,0.63,0],[0.72,0.99,0],[0.5,1,0],[0.28,0.99,0]];shape=mxgraph.kubernetes.icon2;kubernetesLabel=1;prIcon=k_proxy" parent="1" vertex="1">
          <mxGeometry x="130" y="390" width="50" height="48" as="geometry" />
        </mxCell>
        <mxCell id="FYHPnag68zxIwUbDfZCj-59" value="" style="aspect=fixed;sketch=0;html=1;dashed=0;whitespace=wrap;fillColor=#2875E2;strokeColor=#ffffff;points=[[0.005,0.63,0],[0.1,0.2,0],[0.9,0.2,0],[0.5,0,0],[0.995,0.63,0],[0.72,0.99,0],[0.5,1,0],[0.28,0.99,0]];shape=mxgraph.kubernetes.icon2;kubernetesLabel=1;prIcon=etcd" parent="1" vertex="1">
          <mxGeometry x="272.5" y="151" width="50" height="48" as="geometry" />
        </mxCell>
        <mxCell id="FYHPnag68zxIwUbDfZCj-62" value="" style="aspect=fixed;sketch=0;html=1;dashed=0;whitespace=wrap;fillColor=#2875E2;strokeColor=#ffffff;points=[[0.005,0.63,0],[0.1,0.2,0],[0.9,0.2,0],[0.5,0,0],[0.995,0.63,0],[0.72,0.99,0],[0.5,1,0],[0.28,0.99,0]];shape=mxgraph.kubernetes.icon2;kubernetesLabel=1;prIcon=c_m" parent="1" vertex="1">
          <mxGeometry x="212.5" y="153" width="50" height="48" as="geometry" />
        </mxCell>
        <mxCell id="FYHPnag68zxIwUbDfZCj-63" value="" style="aspect=fixed;sketch=0;html=1;dashed=0;whitespace=wrap;fillColor=#2875E2;strokeColor=#ffffff;points=[[0.005,0.63,0],[0.1,0.2,0],[0.9,0.2,0],[0.5,0,0],[0.995,0.63,0],[0.72,0.99,0],[0.5,1,0],[0.28,0.99,0]];shape=mxgraph.kubernetes.icon2;kubernetesLabel=1;prIcon=api" parent="1" vertex="1">
          <mxGeometry x="212.5" y="94" width="50" height="48" as="geometry" />
        </mxCell>
        <mxCell id="FYHPnag68zxIwUbDfZCj-65" value="" style="aspect=fixed;sketch=0;html=1;dashed=0;whitespace=wrap;fillColor=#2875E2;strokeColor=#ffffff;points=[[0.005,0.63,0],[0.1,0.2,0],[0.9,0.2,0],[0.5,0,0],[0.995,0.63,0],[0.72,0.99,0],[0.5,1,0],[0.28,0.99,0]];shape=mxgraph.kubernetes.icon2;kubernetesLabel=1;prIcon=kubelet" parent="1" vertex="1">
          <mxGeometry x="200" y="390" width="50" height="48" as="geometry" />
        </mxCell>
        <mxCell id="FYHPnag68zxIwUbDfZCj-66" value="" style="shape=image;verticalLabelPosition=bottom;labelBackgroundColor=default;verticalAlign=top;aspect=fixed;imageAspect=0;image=https://cdn.icon-icons.com/icons2/3911/PNG/512/containerd_logo_icon_247281.png;" parent="1" vertex="1">
          <mxGeometry x="130" y="460" width="50" height="50" as="geometry" />
        </mxCell>
        <mxCell id="FYHPnag68zxIwUbDfZCj-69" value="" style="shape=image;imageAspect=0;aspect=fixed;verticalLabelPosition=bottom;verticalAlign=top;image=https://encrypted-tbn0.gstatic.com/images?q=tbn:ANd9GcTURSei9gaJ0WmB3Jx4YaJW_SNZaxi2KbFT9WCpIwudkg&amp;s;" parent="1" vertex="1">
          <mxGeometry x="207.06999999999994" y="460" width="35.85" height="50" as="geometry" />
        </mxCell>
        <mxCell id="FYHPnag68zxIwUbDfZCj-73" value="" style="rounded=1;whiteSpace=wrap;html=1;arcSize=2;imageHeight=24;align=left;fillColor=#ffe6cc;strokeColor=#d79b00;" parent="1" vertex="1">
          <mxGeometry x="410" y="61" width="145" height="180" as="geometry" />
        </mxCell>
        <mxCell id="FYHPnag68zxIwUbDfZCj-74" value="" style="aspect=fixed;sketch=0;html=1;dashed=0;whitespace=wrap;fillColor=#2875E2;strokeColor=#ffffff;points=[[0.005,0.63,0],[0.1,0.2,0],[0.9,0.2,0],[0.5,0,0],[0.995,0.63,0],[0.72,0.99,0],[0.5,1,0],[0.28,0.99,0]];shape=mxgraph.kubernetes.icon2;kubernetesLabel=1;prIcon=sched" parent="1" vertex="1">
          <mxGeometry x="485" y="93" width="50" height="48" as="geometry" />
        </mxCell>
        <mxCell id="FYHPnag68zxIwUbDfZCj-75" value="" style="aspect=fixed;sketch=0;html=1;dashed=0;whitespace=wrap;fillColor=#2875E2;strokeColor=#ffffff;points=[[0.005,0.63,0],[0.1,0.2,0],[0.9,0.2,0],[0.5,0,0],[0.995,0.63,0],[0.72,0.99,0],[0.5,1,0],[0.28,0.99,0]];shape=mxgraph.kubernetes.icon2;kubernetesLabel=1;prIcon=etcd" parent="1" vertex="1">
          <mxGeometry x="485" y="151" width="50" height="48" as="geometry" />
        </mxCell>
        <mxCell id="FYHPnag68zxIwUbDfZCj-76" value="" style="aspect=fixed;sketch=0;html=1;dashed=0;whitespace=wrap;fillColor=#2875E2;strokeColor=#ffffff;points=[[0.005,0.63,0],[0.1,0.2,0],[0.9,0.2,0],[0.5,0,0],[0.995,0.63,0],[0.72,0.99,0],[0.5,1,0],[0.28,0.99,0]];shape=mxgraph.kubernetes.icon2;kubernetesLabel=1;prIcon=c_m" parent="1" vertex="1">
          <mxGeometry x="425" y="153" width="50" height="48" as="geometry" />
        </mxCell>
        <mxCell id="FYHPnag68zxIwUbDfZCj-77" value="" style="aspect=fixed;sketch=0;html=1;dashed=0;whitespace=wrap;fillColor=#2875E2;strokeColor=#ffffff;points=[[0.005,0.63,0],[0.1,0.2,0],[0.9,0.2,0],[0.5,0,0],[0.995,0.63,0],[0.72,0.99,0],[0.5,1,0],[0.28,0.99,0]];shape=mxgraph.kubernetes.icon2;kubernetesLabel=1;prIcon=api" parent="1" vertex="1">
          <mxGeometry x="425" y="94" width="50" height="48" as="geometry" />
        </mxCell>
        <mxCell id="FYHPnag68zxIwUbDfZCj-78" value="Master" style="text;html=1;align=center;verticalAlign=middle;whiteSpace=wrap;rounded=0;fontFamily=Roboto;" parent="1" vertex="1">
          <mxGeometry x="410" y="61" width="60" height="30" as="geometry" />
        </mxCell>
        <mxCell id="tFIEXjJvMCMqe_9Ap2Vx-1" value="Master" style="text;html=1;align=center;verticalAlign=middle;whiteSpace=wrap;rounded=0;fontFamily=Roboto;" vertex="1" parent="1">
          <mxGeometry x="197.5" y="60" width="60" height="30" as="geometry" />
        </mxCell>
        <mxCell id="tFIEXjJvMCMqe_9Ap2Vx-2" value="Worker" style="text;html=1;align=center;verticalAlign=middle;whiteSpace=wrap;rounded=0;fontFamily=Roboto;" vertex="1" parent="1">
          <mxGeometry x="120" y="360" width="60" height="30" as="geometry" />
        </mxCell>
        <mxCell id="tFIEXjJvMCMqe_9Ap2Vx-4" value="" style="endArrow=classic;startArrow=classic;html=1;rounded=0;strokeWidth=2;entryX=0.5;entryY=1;entryDx=0;entryDy=0;" edge="1" parent="1" target="FYHPnag68zxIwUbDfZCj-4">
          <mxGeometry width="50" height="50" relative="1" as="geometry">
            <mxPoint x="270" y="300" as="sourcePoint" />
            <mxPoint x="290" y="260" as="targetPoint" />
          </mxGeometry>
        </mxCell>
        <mxCell id="tFIEXjJvMCMqe_9Ap2Vx-5" value="" style="endArrow=classic;startArrow=classic;html=1;rounded=0;strokeWidth=2;entryX=0.5;entryY=1;entryDx=0;entryDy=0;" edge="1" parent="1">
          <mxGeometry width="50" height="50" relative="1" as="geometry">
            <mxPoint x="485" y="300" as="sourcePoint" />
            <mxPoint x="485" y="240" as="targetPoint" />
          </mxGeometry>
        </mxCell>
        <mxCell id="tFIEXjJvMCMqe_9Ap2Vx-6" value="" style="rounded=1;whiteSpace=wrap;html=1;arcSize=2;imageHeight=24;align=left;fillColor=#d5e8d4;strokeColor=#82b366;" vertex="1" parent="1">
          <mxGeometry x="310" y="360" width="145" height="180" as="geometry" />
        </mxCell>
        <mxCell id="tFIEXjJvMCMqe_9Ap2Vx-7" value="" style="aspect=fixed;sketch=0;html=1;dashed=0;whitespace=wrap;fillColor=#2875E2;strokeColor=#ffffff;points=[[0.005,0.63,0],[0.1,0.2,0],[0.9,0.2,0],[0.5,0,0],[0.995,0.63,0],[0.72,0.99,0],[0.5,1,0],[0.28,0.99,0]];shape=mxgraph.kubernetes.icon2;kubernetesLabel=1;prIcon=k_proxy" vertex="1" parent="1">
          <mxGeometry x="320" y="390" width="50" height="48" as="geometry" />
        </mxCell>
        <mxCell id="tFIEXjJvMCMqe_9Ap2Vx-8" value="" style="aspect=fixed;sketch=0;html=1;dashed=0;whitespace=wrap;fillColor=#2875E2;strokeColor=#ffffff;points=[[0.005,0.63,0],[0.1,0.2,0],[0.9,0.2,0],[0.5,0,0],[0.995,0.63,0],[0.72,0.99,0],[0.5,1,0],[0.28,0.99,0]];shape=mxgraph.kubernetes.icon2;kubernetesLabel=1;prIcon=kubelet" vertex="1" parent="1">
          <mxGeometry x="390" y="390" width="50" height="48" as="geometry" />
        </mxCell>
        <mxCell id="tFIEXjJvMCMqe_9Ap2Vx-9" value="" style="shape=image;verticalLabelPosition=bottom;labelBackgroundColor=default;verticalAlign=top;aspect=fixed;imageAspect=0;image=https://cdn.icon-icons.com/icons2/3911/PNG/512/containerd_logo_icon_247281.png;" vertex="1" parent="1">
          <mxGeometry x="320" y="460" width="50" height="50" as="geometry" />
        </mxCell>
        <mxCell id="tFIEXjJvMCMqe_9Ap2Vx-10" value="" style="shape=image;imageAspect=0;aspect=fixed;verticalLabelPosition=bottom;verticalAlign=top;image=https://encrypted-tbn0.gstatic.com/images?q=tbn:ANd9GcTURSei9gaJ0WmB3Jx4YaJW_SNZaxi2KbFT9WCpIwudkg&amp;s;" vertex="1" parent="1">
          <mxGeometry x="397.06999999999994" y="460" width="35.85" height="50" as="geometry" />
        </mxCell>
        <mxCell id="tFIEXjJvMCMqe_9Ap2Vx-11" value="Worker" style="text;html=1;align=center;verticalAlign=middle;whiteSpace=wrap;rounded=0;fontFamily=Roboto;" vertex="1" parent="1">
          <mxGeometry x="310" y="360" width="60" height="30" as="geometry" />
        </mxCell>
        <mxCell id="tFIEXjJvMCMqe_9Ap2Vx-12" value="" style="rounded=1;whiteSpace=wrap;html=1;arcSize=2;imageHeight=24;align=left;fillColor=#d5e8d4;strokeColor=#82b366;" vertex="1" parent="1">
          <mxGeometry x="500" y="360" width="145" height="180" as="geometry" />
        </mxCell>
        <mxCell id="tFIEXjJvMCMqe_9Ap2Vx-13" value="" style="aspect=fixed;sketch=0;html=1;dashed=0;whitespace=wrap;fillColor=#2875E2;strokeColor=#ffffff;points=[[0.005,0.63,0],[0.1,0.2,0],[0.9,0.2,0],[0.5,0,0],[0.995,0.63,0],[0.72,0.99,0],[0.5,1,0],[0.28,0.99,0]];shape=mxgraph.kubernetes.icon2;kubernetesLabel=1;prIcon=k_proxy" vertex="1" parent="1">
          <mxGeometry x="510" y="390" width="50" height="48" as="geometry" />
        </mxCell>
        <mxCell id="tFIEXjJvMCMqe_9Ap2Vx-14" value="" style="aspect=fixed;sketch=0;html=1;dashed=0;whitespace=wrap;fillColor=#2875E2;strokeColor=#ffffff;points=[[0.005,0.63,0],[0.1,0.2,0],[0.9,0.2,0],[0.5,0,0],[0.995,0.63,0],[0.72,0.99,0],[0.5,1,0],[0.28,0.99,0]];shape=mxgraph.kubernetes.icon2;kubernetesLabel=1;prIcon=kubelet" vertex="1" parent="1">
          <mxGeometry x="580" y="390" width="50" height="48" as="geometry" />
        </mxCell>
        <mxCell id="tFIEXjJvMCMqe_9Ap2Vx-15" value="" style="shape=image;verticalLabelPosition=bottom;labelBackgroundColor=default;verticalAlign=top;aspect=fixed;imageAspect=0;image=https://cdn.icon-icons.com/icons2/3911/PNG/512/containerd_logo_icon_247281.png;" vertex="1" parent="1">
          <mxGeometry x="510" y="460" width="50" height="50" as="geometry" />
        </mxCell>
        <mxCell id="tFIEXjJvMCMqe_9Ap2Vx-16" value="" style="shape=image;imageAspect=0;aspect=fixed;verticalLabelPosition=bottom;verticalAlign=top;image=https://encrypted-tbn0.gstatic.com/images?q=tbn:ANd9GcTURSei9gaJ0WmB3Jx4YaJW_SNZaxi2KbFT9WCpIwudkg&amp;s;" vertex="1" parent="1">
          <mxGeometry x="587.0699999999999" y="460" width="35.85" height="50" as="geometry" />
        </mxCell>
        <mxCell id="tFIEXjJvMCMqe_9Ap2Vx-17" value="Worker" style="text;html=1;align=center;verticalAlign=middle;whiteSpace=wrap;rounded=0;fontFamily=Roboto;" vertex="1" parent="1">
          <mxGeometry x="500" y="360" width="60" height="30" as="geometry" />
        </mxCell>
        <mxCell id="tFIEXjJvMCMqe_9Ap2Vx-18" value="" style="endArrow=classic;startArrow=classic;html=1;rounded=0;strokeWidth=2;entryX=0.5;entryY=1;entryDx=0;entryDy=0;" edge="1" parent="1">
          <mxGeometry width="50" height="50" relative="1" as="geometry">
            <mxPoint x="196.79" y="360" as="sourcePoint" />
            <mxPoint x="196.79" y="300" as="targetPoint" />
          </mxGeometry>
        </mxCell>
        <mxCell id="tFIEXjJvMCMqe_9Ap2Vx-19" value="" style="endArrow=classic;startArrow=classic;html=1;rounded=0;strokeWidth=2;entryX=0.5;entryY=1;entryDx=0;entryDy=0;" edge="1" parent="1">
          <mxGeometry width="50" height="50" relative="1" as="geometry">
            <mxPoint x="382.14" y="360" as="sourcePoint" />
            <mxPoint x="382.14" y="300" as="targetPoint" />
          </mxGeometry>
        </mxCell>
        <mxCell id="tFIEXjJvMCMqe_9Ap2Vx-20" value="" style="endArrow=classic;startArrow=classic;html=1;rounded=0;strokeWidth=2;entryX=0.5;entryY=1;entryDx=0;entryDy=0;" edge="1" parent="1">
          <mxGeometry width="50" height="50" relative="1" as="geometry">
            <mxPoint x="572.14" y="360" as="sourcePoint" />
            <mxPoint x="572.14" y="300" as="targetPoint" />
          </mxGeometry>
        </mxCell>
        <mxCell id="tFIEXjJvMCMqe_9Ap2Vx-24" value="" style="aspect=fixed;sketch=0;html=1;dashed=0;whitespace=wrap;fillColor=#2875E2;strokeColor=#ffffff;points=[[0.005,0.63,0],[0.1,0.2,0],[0.9,0.2,0],[0.5,0,0],[0.995,0.63,0],[0.72,0.99,0],[0.5,1,0],[0.28,0.99,0]];shape=mxgraph.kubernetes.icon2;kubernetesLabel=1;prIcon=pod" vertex="1" parent="1">
          <mxGeometry x="-781.67" y="355" width="26.04" height="25" as="geometry" />
        </mxCell>
        <mxCell id="tFIEXjJvMCMqe_9Ap2Vx-25" value="" style="aspect=fixed;sketch=0;html=1;dashed=0;whitespace=wrap;fillColor=#2875E2;strokeColor=#ffffff;points=[[0.005,0.63,0],[0.1,0.2,0],[0.9,0.2,0],[0.5,0,0],[0.995,0.63,0],[0.72,0.99,0],[0.5,1,0],[0.28,0.99,0]];shape=mxgraph.kubernetes.icon2;kubernetesLabel=1;prIcon=pod" vertex="1" parent="1">
          <mxGeometry x="-755.63" y="380" width="26.04" height="25" as="geometry" />
        </mxCell>
        <mxCell id="tFIEXjJvMCMqe_9Ap2Vx-26" value="" style="aspect=fixed;sketch=0;html=1;dashed=0;whitespace=wrap;fillColor=#2875E2;strokeColor=#ffffff;points=[[0.005,0.63,0],[0.1,0.2,0],[0.9,0.2,0],[0.5,0,0],[0.995,0.63,0],[0.72,0.99,0],[0.5,1,0],[0.28,0.99,0]];shape=mxgraph.kubernetes.icon2;kubernetesLabel=1;prIcon=pod" vertex="1" parent="1">
          <mxGeometry x="-740" y="355" width="26.04" height="25" as="geometry" />
        </mxCell>
        <mxCell id="tFIEXjJvMCMqe_9Ap2Vx-27" value="" style="aspect=fixed;sketch=0;html=1;dashed=0;whitespace=wrap;fillColor=#2875E2;strokeColor=#ffffff;points=[[0.005,0.63,0],[0.1,0.2,0],[0.9,0.2,0],[0.5,0,0],[0.995,0.63,0],[0.72,0.99,0],[0.5,1,0],[0.28,0.99,0]];shape=mxgraph.kubernetes.icon2;kubernetesLabel=1;prIcon=pod" vertex="1" parent="1">
          <mxGeometry x="-718.02" y="380" width="26.04" height="25" as="geometry" />
        </mxCell>
        <mxCell id="tFIEXjJvMCMqe_9Ap2Vx-28" value="" style="rounded=1;whiteSpace=wrap;html=1;arcSize=2;imageHeight=24;align=left;horizontal=0;imageVerticalAlign=top;fillColor=#d5e8d4;strokeColor=#82b366;" vertex="1" parent="1">
          <mxGeometry x="-620" y="325" width="150" height="85" as="geometry" />
        </mxCell>
        <mxCell id="tFIEXjJvMCMqe_9Ap2Vx-29" value="Worker" style="text;html=1;align=center;verticalAlign=middle;whiteSpace=wrap;rounded=0;fontFamily=Roboto;" vertex="1" parent="1">
          <mxGeometry x="-620" y="325" width="60" height="30" as="geometry" />
        </mxCell>
        <mxCell id="tFIEXjJvMCMqe_9Ap2Vx-31" value="" style="aspect=fixed;sketch=0;html=1;dashed=0;whitespace=wrap;fillColor=#2875E2;strokeColor=#ffffff;points=[[0.005,0.63,0],[0.1,0.2,0],[0.9,0.2,0],[0.5,0,0],[0.995,0.63,0],[0.72,0.99,0],[0.5,1,0],[0.28,0.99,0]];shape=mxgraph.kubernetes.icon2;kubernetesLabel=1;prIcon=pod" vertex="1" parent="1">
          <mxGeometry x="-611.67" y="355" width="26.04" height="25" as="geometry" />
        </mxCell>
        <mxCell id="tFIEXjJvMCMqe_9Ap2Vx-32" value="" style="aspect=fixed;sketch=0;html=1;dashed=0;whitespace=wrap;fillColor=#2875E2;strokeColor=#ffffff;points=[[0.005,0.63,0],[0.1,0.2,0],[0.9,0.2,0],[0.5,0,0],[0.995,0.63,0],[0.72,0.99,0],[0.5,1,0],[0.28,0.99,0]];shape=mxgraph.kubernetes.icon2;kubernetesLabel=1;prIcon=pod" vertex="1" parent="1">
          <mxGeometry x="-585.63" y="380" width="26.04" height="25" as="geometry" />
        </mxCell>
        <mxCell id="tFIEXjJvMCMqe_9Ap2Vx-33" value="" style="aspect=fixed;sketch=0;html=1;dashed=0;whitespace=wrap;fillColor=#2875E2;strokeColor=#ffffff;points=[[0.005,0.63,0],[0.1,0.2,0],[0.9,0.2,0],[0.5,0,0],[0.995,0.63,0],[0.72,0.99,0],[0.5,1,0],[0.28,0.99,0]];shape=mxgraph.kubernetes.icon2;kubernetesLabel=1;prIcon=pod" vertex="1" parent="1">
          <mxGeometry x="-570" y="355" width="26.04" height="25" as="geometry" />
        </mxCell>
        <mxCell id="tFIEXjJvMCMqe_9Ap2Vx-34" value="" style="aspect=fixed;sketch=0;html=1;dashed=0;whitespace=wrap;fillColor=#2875E2;strokeColor=#ffffff;points=[[0.005,0.63,0],[0.1,0.2,0],[0.9,0.2,0],[0.5,0,0],[0.995,0.63,0],[0.72,0.99,0],[0.5,1,0],[0.28,0.99,0]];shape=mxgraph.kubernetes.icon2;kubernetesLabel=1;prIcon=pod" vertex="1" parent="1">
          <mxGeometry x="-548.02" y="380" width="26.04" height="25" as="geometry" />
        </mxCell>
        <mxCell id="tFIEXjJvMCMqe_9Ap2Vx-35" value="" style="rounded=1;whiteSpace=wrap;html=1;arcSize=2;imageHeight=24;align=left;horizontal=0;imageVerticalAlign=top;fillColor=#d5e8d4;strokeColor=#82b366;" vertex="1" parent="1">
          <mxGeometry x="-790" y="433" width="150" height="85" as="geometry" />
        </mxCell>
        <mxCell id="tFIEXjJvMCMqe_9Ap2Vx-36" value="Worker" style="text;html=1;align=center;verticalAlign=middle;whiteSpace=wrap;rounded=0;fontFamily=Roboto;" vertex="1" parent="1">
          <mxGeometry x="-790" y="433" width="60" height="30" as="geometry" />
        </mxCell>
        <mxCell id="tFIEXjJvMCMqe_9Ap2Vx-38" value="" style="aspect=fixed;sketch=0;html=1;dashed=0;whitespace=wrap;fillColor=#2875E2;strokeColor=#ffffff;points=[[0.005,0.63,0],[0.1,0.2,0],[0.9,0.2,0],[0.5,0,0],[0.995,0.63,0],[0.72,0.99,0],[0.5,1,0],[0.28,0.99,0]];shape=mxgraph.kubernetes.icon2;kubernetesLabel=1;prIcon=pod" vertex="1" parent="1">
          <mxGeometry x="-781.67" y="463" width="26.04" height="25" as="geometry" />
        </mxCell>
        <mxCell id="tFIEXjJvMCMqe_9Ap2Vx-39" value="" style="aspect=fixed;sketch=0;html=1;dashed=0;whitespace=wrap;fillColor=#2875E2;strokeColor=#ffffff;points=[[0.005,0.63,0],[0.1,0.2,0],[0.9,0.2,0],[0.5,0,0],[0.995,0.63,0],[0.72,0.99,0],[0.5,1,0],[0.28,0.99,0]];shape=mxgraph.kubernetes.icon2;kubernetesLabel=1;prIcon=pod" vertex="1" parent="1">
          <mxGeometry x="-755.63" y="488" width="26.04" height="25" as="geometry" />
        </mxCell>
        <mxCell id="tFIEXjJvMCMqe_9Ap2Vx-40" value="" style="aspect=fixed;sketch=0;html=1;dashed=0;whitespace=wrap;fillColor=#2875E2;strokeColor=#ffffff;points=[[0.005,0.63,0],[0.1,0.2,0],[0.9,0.2,0],[0.5,0,0],[0.995,0.63,0],[0.72,0.99,0],[0.5,1,0],[0.28,0.99,0]];shape=mxgraph.kubernetes.icon2;kubernetesLabel=1;prIcon=pod" vertex="1" parent="1">
          <mxGeometry x="-740" y="463" width="26.04" height="25" as="geometry" />
        </mxCell>
        <mxCell id="tFIEXjJvMCMqe_9Ap2Vx-41" value="" style="aspect=fixed;sketch=0;html=1;dashed=0;whitespace=wrap;fillColor=#2875E2;strokeColor=#ffffff;points=[[0.005,0.63,0],[0.1,0.2,0],[0.9,0.2,0],[0.5,0,0],[0.995,0.63,0],[0.72,0.99,0],[0.5,1,0],[0.28,0.99,0]];shape=mxgraph.kubernetes.icon2;kubernetesLabel=1;prIcon=pod" vertex="1" parent="1">
          <mxGeometry x="-718.02" y="488" width="26.04" height="25" as="geometry" />
        </mxCell>
        <mxCell id="tFIEXjJvMCMqe_9Ap2Vx-42" value="" style="rounded=1;whiteSpace=wrap;html=1;arcSize=2;imageHeight=24;align=left;horizontal=0;imageVerticalAlign=top;fillColor=#d5e8d4;strokeColor=#82b366;" vertex="1" parent="1">
          <mxGeometry x="-620" y="433" width="150" height="85" as="geometry" />
        </mxCell>
        <mxCell id="tFIEXjJvMCMqe_9Ap2Vx-43" value="Worker" style="text;html=1;align=center;verticalAlign=middle;whiteSpace=wrap;rounded=0;fontFamily=Roboto;" vertex="1" parent="1">
          <mxGeometry x="-620" y="433" width="60" height="30" as="geometry" />
        </mxCell>
        <mxCell id="tFIEXjJvMCMqe_9Ap2Vx-45" value="" style="aspect=fixed;sketch=0;html=1;dashed=0;whitespace=wrap;fillColor=#2875E2;strokeColor=#ffffff;points=[[0.005,0.63,0],[0.1,0.2,0],[0.9,0.2,0],[0.5,0,0],[0.995,0.63,0],[0.72,0.99,0],[0.5,1,0],[0.28,0.99,0]];shape=mxgraph.kubernetes.icon2;kubernetesLabel=1;prIcon=pod" vertex="1" parent="1">
          <mxGeometry x="-611.67" y="463" width="26.04" height="25" as="geometry" />
        </mxCell>
        <mxCell id="tFIEXjJvMCMqe_9Ap2Vx-46" value="" style="aspect=fixed;sketch=0;html=1;dashed=0;whitespace=wrap;fillColor=#2875E2;strokeColor=#ffffff;points=[[0.005,0.63,0],[0.1,0.2,0],[0.9,0.2,0],[0.5,0,0],[0.995,0.63,0],[0.72,0.99,0],[0.5,1,0],[0.28,0.99,0]];shape=mxgraph.kubernetes.icon2;kubernetesLabel=1;prIcon=pod" vertex="1" parent="1">
          <mxGeometry x="-585.63" y="488" width="26.04" height="25" as="geometry" />
        </mxCell>
        <mxCell id="tFIEXjJvMCMqe_9Ap2Vx-47" value="" style="aspect=fixed;sketch=0;html=1;dashed=0;whitespace=wrap;fillColor=#2875E2;strokeColor=#ffffff;points=[[0.005,0.63,0],[0.1,0.2,0],[0.9,0.2,0],[0.5,0,0],[0.995,0.63,0],[0.72,0.99,0],[0.5,1,0],[0.28,0.99,0]];shape=mxgraph.kubernetes.icon2;kubernetesLabel=1;prIcon=pod" vertex="1" parent="1">
          <mxGeometry x="-570" y="463" width="26.04" height="25" as="geometry" />
        </mxCell>
        <mxCell id="tFIEXjJvMCMqe_9Ap2Vx-48" value="" style="aspect=fixed;sketch=0;html=1;dashed=0;whitespace=wrap;fillColor=#2875E2;strokeColor=#ffffff;points=[[0.005,0.63,0],[0.1,0.2,0],[0.9,0.2,0],[0.5,0,0],[0.995,0.63,0],[0.72,0.99,0],[0.5,1,0],[0.28,0.99,0]];shape=mxgraph.kubernetes.icon2;kubernetesLabel=1;prIcon=pod" vertex="1" parent="1">
          <mxGeometry x="-548.02" y="488" width="26.04" height="25" as="geometry" />
        </mxCell>
        <mxCell id="tFIEXjJvMCMqe_9Ap2Vx-55" value="" style="rounded=1;whiteSpace=wrap;html=1;arcSize=2;imageHeight=24;align=left;horizontal=0;imageVerticalAlign=top;fillColor=#ffe6cc;strokeColor=#d79b00;" vertex="1" parent="1">
          <mxGeometry x="-695" y="211" width="150" height="85" as="geometry" />
        </mxCell>
        <mxCell id="tFIEXjJvMCMqe_9Ap2Vx-56" value="Master" style="text;html=1;align=center;verticalAlign=middle;whiteSpace=wrap;rounded=0;fontFamily=Roboto;" vertex="1" parent="1">
          <mxGeometry x="-695" y="211" width="60" height="30" as="geometry" />
        </mxCell>
        <mxCell id="tFIEXjJvMCMqe_9Ap2Vx-57" value="" style="image;sketch=0;aspect=fixed;html=1;points=[];align=center;fontSize=12;image=img/lib/mscae/Kubernetes.svg;" vertex="1" parent="1">
          <mxGeometry x="-502.92" y="180" width="72.92" height="70" as="geometry" />
        </mxCell>
        <mxCell id="tFIEXjJvMCMqe_9Ap2Vx-63" value="Cluster1" style="text;html=1;align=center;verticalAlign=middle;whiteSpace=wrap;rounded=0;fontFamily=Roboto;fontSize=14;fontStyle=1" vertex="1" parent="1">
          <mxGeometry x="-789.5899999999999" y="207" width="60" height="30" as="geometry" />
        </mxCell>
        <mxCell id="tFIEXjJvMCMqe_9Ap2Vx-64" value="" style="aspect=fixed;sketch=0;html=1;dashed=0;whitespace=wrap;fillColor=#2875E2;strokeColor=#ffffff;points=[[0.005,0.63,0],[0.1,0.2,0],[0.9,0.2,0],[0.5,0,0],[0.995,0.63,0],[0.72,0.99,0],[0.5,1,0],[0.28,0.99,0]];shape=mxgraph.kubernetes.icon2;kubernetesLabel=1;prIcon=node" vertex="1" parent="1">
          <mxGeometry x="-581.98" y="202" width="50" height="48" as="geometry" />
        </mxCell>
        <mxCell id="tFIEXjJvMCMqe_9Ap2Vx-65" value="" style="aspect=fixed;sketch=0;html=1;dashed=0;whitespace=wrap;fillColor=#2875E2;strokeColor=#ffffff;points=[[0.005,0.63,0],[0.1,0.2,0],[0.9,0.2,0],[0.5,0,0],[0.995,0.63,0],[0.72,0.99,0],[0.5,1,0],[0.28,0.99,0]];shape=mxgraph.kubernetes.icon2;kubernetesLabel=1;prIcon=node" vertex="1" parent="1">
          <mxGeometry x="-680" y="312" width="50" height="48" as="geometry" />
        </mxCell>
        <mxCell id="tFIEXjJvMCMqe_9Ap2Vx-66" value="" style="aspect=fixed;sketch=0;html=1;dashed=0;whitespace=wrap;fillColor=#2875E2;strokeColor=#ffffff;points=[[0.005,0.63,0],[0.1,0.2,0],[0.9,0.2,0],[0.5,0,0],[0.995,0.63,0],[0.72,0.99,0],[0.5,1,0],[0.28,0.99,0]];shape=mxgraph.kubernetes.icon2;kubernetesLabel=1;prIcon=node" vertex="1" parent="1">
          <mxGeometry x="-510" y="316" width="50" height="48" as="geometry" />
        </mxCell>
        <mxCell id="tFIEXjJvMCMqe_9Ap2Vx-67" value="" style="aspect=fixed;sketch=0;html=1;dashed=0;whitespace=wrap;fillColor=#2875E2;strokeColor=#ffffff;points=[[0.005,0.63,0],[0.1,0.2,0],[0.9,0.2,0],[0.5,0,0],[0.995,0.63,0],[0.72,0.99,0],[0.5,1,0],[0.28,0.99,0]];shape=mxgraph.kubernetes.icon2;kubernetesLabel=1;prIcon=node" vertex="1" parent="1">
          <mxGeometry x="-680" y="424" width="50" height="48" as="geometry" />
        </mxCell>
        <mxCell id="tFIEXjJvMCMqe_9Ap2Vx-68" value="" style="aspect=fixed;sketch=0;html=1;dashed=0;whitespace=wrap;fillColor=#2875E2;strokeColor=#ffffff;points=[[0.005,0.63,0],[0.1,0.2,0],[0.9,0.2,0],[0.5,0,0],[0.995,0.63,0],[0.72,0.99,0],[0.5,1,0],[0.28,0.99,0]];shape=mxgraph.kubernetes.icon2;kubernetesLabel=1;prIcon=node" vertex="1" parent="1">
          <mxGeometry x="-510" y="424" width="50" height="48" as="geometry" />
        </mxCell>
        <mxCell id="tFIEXjJvMCMqe_9Ap2Vx-70" value="" style="image;sketch=0;aspect=fixed;html=1;points=[];align=center;fontSize=12;image=img/lib/mscae/Kubernetes.svg;" vertex="1" parent="1">
          <mxGeometry x="600" y="20" width="72.92" height="70" as="geometry" />
        </mxCell>
        <mxCell id="tFIEXjJvMCMqe_9Ap2Vx-72" value="" style="rounded=1;whiteSpace=wrap;html=1;arcSize=2;imageHeight=24;" vertex="1" parent="1">
          <mxGeometry x="-400" y="268" width="350" height="232" as="geometry" />
        </mxCell>
        <mxCell id="tFIEXjJvMCMqe_9Ap2Vx-73" value="" style="rounded=1;whiteSpace=wrap;html=1;arcSize=2;imageHeight=24;align=left;horizontal=0;imageVerticalAlign=top;fillColor=#d5e8d4;strokeColor=#82b366;" vertex="1" parent="1">
          <mxGeometry x="-390" y="395" width="150" height="85" as="geometry" />
        </mxCell>
        <mxCell id="tFIEXjJvMCMqe_9Ap2Vx-74" value="Worker" style="text;html=1;align=center;verticalAlign=middle;whiteSpace=wrap;rounded=0;fontFamily=Roboto;" vertex="1" parent="1">
          <mxGeometry x="-390" y="395" width="60" height="30" as="geometry" />
        </mxCell>
        <mxCell id="tFIEXjJvMCMqe_9Ap2Vx-75" value="" style="aspect=fixed;sketch=0;html=1;dashed=0;whitespace=wrap;fillColor=#2875E2;strokeColor=#ffffff;points=[[0.005,0.63,0],[0.1,0.2,0],[0.9,0.2,0],[0.5,0,0],[0.995,0.63,0],[0.72,0.99,0],[0.5,1,0],[0.28,0.99,0]];shape=mxgraph.kubernetes.icon2;kubernetesLabel=1;prIcon=pod" vertex="1" parent="1">
          <mxGeometry x="-381.66999999999996" y="425" width="26.04" height="25" as="geometry" />
        </mxCell>
        <mxCell id="tFIEXjJvMCMqe_9Ap2Vx-76" value="" style="aspect=fixed;sketch=0;html=1;dashed=0;whitespace=wrap;fillColor=#2875E2;strokeColor=#ffffff;points=[[0.005,0.63,0],[0.1,0.2,0],[0.9,0.2,0],[0.5,0,0],[0.995,0.63,0],[0.72,0.99,0],[0.5,1,0],[0.28,0.99,0]];shape=mxgraph.kubernetes.icon2;kubernetesLabel=1;prIcon=pod" vertex="1" parent="1">
          <mxGeometry x="-355.63" y="450" width="26.04" height="25" as="geometry" />
        </mxCell>
        <mxCell id="tFIEXjJvMCMqe_9Ap2Vx-77" value="" style="aspect=fixed;sketch=0;html=1;dashed=0;whitespace=wrap;fillColor=#2875E2;strokeColor=#ffffff;points=[[0.005,0.63,0],[0.1,0.2,0],[0.9,0.2,0],[0.5,0,0],[0.995,0.63,0],[0.72,0.99,0],[0.5,1,0],[0.28,0.99,0]];shape=mxgraph.kubernetes.icon2;kubernetesLabel=1;prIcon=pod" vertex="1" parent="1">
          <mxGeometry x="-340" y="425" width="26.04" height="25" as="geometry" />
        </mxCell>
        <mxCell id="tFIEXjJvMCMqe_9Ap2Vx-78" value="" style="aspect=fixed;sketch=0;html=1;dashed=0;whitespace=wrap;fillColor=#2875E2;strokeColor=#ffffff;points=[[0.005,0.63,0],[0.1,0.2,0],[0.9,0.2,0],[0.5,0,0],[0.995,0.63,0],[0.72,0.99,0],[0.5,1,0],[0.28,0.99,0]];shape=mxgraph.kubernetes.icon2;kubernetesLabel=1;prIcon=pod" vertex="1" parent="1">
          <mxGeometry x="-318.02" y="450" width="26.04" height="25" as="geometry" />
        </mxCell>
        <mxCell id="tFIEXjJvMCMqe_9Ap2Vx-79" value="" style="rounded=1;whiteSpace=wrap;html=1;arcSize=2;imageHeight=24;align=left;horizontal=0;imageVerticalAlign=top;fillColor=#d5e8d4;strokeColor=#82b366;" vertex="1" parent="1">
          <mxGeometry x="-220" y="395" width="150" height="85" as="geometry" />
        </mxCell>
        <mxCell id="tFIEXjJvMCMqe_9Ap2Vx-80" value="Worker" style="text;html=1;align=center;verticalAlign=middle;whiteSpace=wrap;rounded=0;fontFamily=Roboto;" vertex="1" parent="1">
          <mxGeometry x="-220" y="395" width="60" height="30" as="geometry" />
        </mxCell>
        <mxCell id="tFIEXjJvMCMqe_9Ap2Vx-81" value="" style="aspect=fixed;sketch=0;html=1;dashed=0;whitespace=wrap;fillColor=#2875E2;strokeColor=#ffffff;points=[[0.005,0.63,0],[0.1,0.2,0],[0.9,0.2,0],[0.5,0,0],[0.995,0.63,0],[0.72,0.99,0],[0.5,1,0],[0.28,0.99,0]];shape=mxgraph.kubernetes.icon2;kubernetesLabel=1;prIcon=pod" vertex="1" parent="1">
          <mxGeometry x="-211.66999999999996" y="425" width="26.04" height="25" as="geometry" />
        </mxCell>
        <mxCell id="tFIEXjJvMCMqe_9Ap2Vx-82" value="" style="aspect=fixed;sketch=0;html=1;dashed=0;whitespace=wrap;fillColor=#2875E2;strokeColor=#ffffff;points=[[0.005,0.63,0],[0.1,0.2,0],[0.9,0.2,0],[0.5,0,0],[0.995,0.63,0],[0.72,0.99,0],[0.5,1,0],[0.28,0.99,0]];shape=mxgraph.kubernetes.icon2;kubernetesLabel=1;prIcon=pod" vertex="1" parent="1">
          <mxGeometry x="-185.63" y="450" width="26.04" height="25" as="geometry" />
        </mxCell>
        <mxCell id="tFIEXjJvMCMqe_9Ap2Vx-83" value="" style="aspect=fixed;sketch=0;html=1;dashed=0;whitespace=wrap;fillColor=#2875E2;strokeColor=#ffffff;points=[[0.005,0.63,0],[0.1,0.2,0],[0.9,0.2,0],[0.5,0,0],[0.995,0.63,0],[0.72,0.99,0],[0.5,1,0],[0.28,0.99,0]];shape=mxgraph.kubernetes.icon2;kubernetesLabel=1;prIcon=pod" vertex="1" parent="1">
          <mxGeometry x="-170" y="425" width="26.04" height="25" as="geometry" />
        </mxCell>
        <mxCell id="tFIEXjJvMCMqe_9Ap2Vx-84" value="" style="aspect=fixed;sketch=0;html=1;dashed=0;whitespace=wrap;fillColor=#2875E2;strokeColor=#ffffff;points=[[0.005,0.63,0],[0.1,0.2,0],[0.9,0.2,0],[0.5,0,0],[0.995,0.63,0],[0.72,0.99,0],[0.5,1,0],[0.28,0.99,0]];shape=mxgraph.kubernetes.icon2;kubernetesLabel=1;prIcon=pod" vertex="1" parent="1">
          <mxGeometry x="-148.01999999999998" y="450" width="26.04" height="25" as="geometry" />
        </mxCell>
        <mxCell id="tFIEXjJvMCMqe_9Ap2Vx-97" value="" style="rounded=1;whiteSpace=wrap;html=1;arcSize=2;imageHeight=24;align=left;horizontal=0;imageVerticalAlign=top;fillColor=#ffe6cc;strokeColor=#d79b00;" vertex="1" parent="1">
          <mxGeometry x="-295" y="281" width="150" height="85" as="geometry" />
        </mxCell>
        <mxCell id="tFIEXjJvMCMqe_9Ap2Vx-98" value="Master" style="text;html=1;align=center;verticalAlign=middle;whiteSpace=wrap;rounded=0;fontFamily=Roboto;" vertex="1" parent="1">
          <mxGeometry x="-295" y="281" width="60" height="30" as="geometry" />
        </mxCell>
        <mxCell id="tFIEXjJvMCMqe_9Ap2Vx-99" value="" style="image;sketch=0;aspect=fixed;html=1;points=[];align=center;fontSize=12;image=img/lib/mscae/Kubernetes.svg;" vertex="1" parent="1">
          <mxGeometry x="-102.92000000000002" y="250" width="72.92" height="70" as="geometry" />
        </mxCell>
        <mxCell id="tFIEXjJvMCMqe_9Ap2Vx-100" value="Cluster2" style="text;html=1;align=center;verticalAlign=middle;whiteSpace=wrap;rounded=0;fontFamily=Roboto;fontSize=14;fontStyle=1" vertex="1" parent="1">
          <mxGeometry x="-389.5899999999999" y="277" width="60" height="30" as="geometry" />
        </mxCell>
        <mxCell id="tFIEXjJvMCMqe_9Ap2Vx-101" value="" style="aspect=fixed;sketch=0;html=1;dashed=0;whitespace=wrap;fillColor=#2875E2;strokeColor=#ffffff;points=[[0.005,0.63,0],[0.1,0.2,0],[0.9,0.2,0],[0.5,0,0],[0.995,0.63,0],[0.72,0.99,0],[0.5,1,0],[0.28,0.99,0]];shape=mxgraph.kubernetes.icon2;kubernetesLabel=1;prIcon=node" vertex="1" parent="1">
          <mxGeometry x="-181.98000000000002" y="272" width="50" height="48" as="geometry" />
        </mxCell>
        <mxCell id="tFIEXjJvMCMqe_9Ap2Vx-102" value="" style="aspect=fixed;sketch=0;html=1;dashed=0;whitespace=wrap;fillColor=#2875E2;strokeColor=#ffffff;points=[[0.005,0.63,0],[0.1,0.2,0],[0.9,0.2,0],[0.5,0,0],[0.995,0.63,0],[0.72,0.99,0],[0.5,1,0],[0.28,0.99,0]];shape=mxgraph.kubernetes.icon2;kubernetesLabel=1;prIcon=node" vertex="1" parent="1">
          <mxGeometry x="-280" y="382" width="50" height="48" as="geometry" />
        </mxCell>
        <mxCell id="tFIEXjJvMCMqe_9Ap2Vx-103" value="" style="aspect=fixed;sketch=0;html=1;dashed=0;whitespace=wrap;fillColor=#2875E2;strokeColor=#ffffff;points=[[0.005,0.63,0],[0.1,0.2,0],[0.9,0.2,0],[0.5,0,0],[0.995,0.63,0],[0.72,0.99,0],[0.5,1,0],[0.28,0.99,0]];shape=mxgraph.kubernetes.icon2;kubernetesLabel=1;prIcon=node" vertex="1" parent="1">
          <mxGeometry x="-110" y="386" width="50" height="48" as="geometry" />
        </mxCell>
        <mxCell id="tFIEXjJvMCMqe_9Ap2Vx-106" value="" style="rounded=1;whiteSpace=wrap;html=1;arcSize=2;imageHeight=24;" vertex="1" parent="1">
          <mxGeometry x="-800" y="578" width="760" height="342" as="geometry" />
        </mxCell>
        <mxCell id="tFIEXjJvMCMqe_9Ap2Vx-107" value="" style="rounded=1;whiteSpace=wrap;html=1;arcSize=2;imageHeight=24;align=left;horizontal=0;imageVerticalAlign=top;fillColor=#d5e8d4;strokeColor=#82b366;" vertex="1" parent="1">
          <mxGeometry x="-755" y="706" width="150" height="85" as="geometry" />
        </mxCell>
        <mxCell id="tFIEXjJvMCMqe_9Ap2Vx-108" value="Worker" style="text;html=1;align=center;verticalAlign=middle;whiteSpace=wrap;rounded=0;fontFamily=Roboto;" vertex="1" parent="1">
          <mxGeometry x="-755" y="706" width="60" height="30" as="geometry" />
        </mxCell>
        <mxCell id="tFIEXjJvMCMqe_9Ap2Vx-109" value="" style="aspect=fixed;sketch=0;html=1;dashed=0;whitespace=wrap;fillColor=#2875E2;strokeColor=#ffffff;points=[[0.005,0.63,0],[0.1,0.2,0],[0.9,0.2,0],[0.5,0,0],[0.995,0.63,0],[0.72,0.99,0],[0.5,1,0],[0.28,0.99,0]];shape=mxgraph.kubernetes.icon2;kubernetesLabel=1;prIcon=pod" vertex="1" parent="1">
          <mxGeometry x="-746.67" y="736" width="26.04" height="25" as="geometry" />
        </mxCell>
        <mxCell id="tFIEXjJvMCMqe_9Ap2Vx-110" value="" style="aspect=fixed;sketch=0;html=1;dashed=0;whitespace=wrap;fillColor=#2875E2;strokeColor=#ffffff;points=[[0.005,0.63,0],[0.1,0.2,0],[0.9,0.2,0],[0.5,0,0],[0.995,0.63,0],[0.72,0.99,0],[0.5,1,0],[0.28,0.99,0]];shape=mxgraph.kubernetes.icon2;kubernetesLabel=1;prIcon=pod" vertex="1" parent="1">
          <mxGeometry x="-720.63" y="761" width="26.04" height="25" as="geometry" />
        </mxCell>
        <mxCell id="tFIEXjJvMCMqe_9Ap2Vx-111" value="" style="aspect=fixed;sketch=0;html=1;dashed=0;whitespace=wrap;fillColor=#2875E2;strokeColor=#ffffff;points=[[0.005,0.63,0],[0.1,0.2,0],[0.9,0.2,0],[0.5,0,0],[0.995,0.63,0],[0.72,0.99,0],[0.5,1,0],[0.28,0.99,0]];shape=mxgraph.kubernetes.icon2;kubernetesLabel=1;prIcon=pod" vertex="1" parent="1">
          <mxGeometry x="-705" y="736" width="26.04" height="25" as="geometry" />
        </mxCell>
        <mxCell id="tFIEXjJvMCMqe_9Ap2Vx-112" value="" style="aspect=fixed;sketch=0;html=1;dashed=0;whitespace=wrap;fillColor=#2875E2;strokeColor=#ffffff;points=[[0.005,0.63,0],[0.1,0.2,0],[0.9,0.2,0],[0.5,0,0],[0.995,0.63,0],[0.72,0.99,0],[0.5,1,0],[0.28,0.99,0]];shape=mxgraph.kubernetes.icon2;kubernetesLabel=1;prIcon=pod" vertex="1" parent="1">
          <mxGeometry x="-683.02" y="761" width="26.04" height="25" as="geometry" />
        </mxCell>
        <mxCell id="tFIEXjJvMCMqe_9Ap2Vx-113" value="" style="rounded=1;whiteSpace=wrap;html=1;arcSize=2;imageHeight=24;align=left;horizontal=0;imageVerticalAlign=top;fillColor=#d5e8d4;strokeColor=#82b366;" vertex="1" parent="1">
          <mxGeometry x="-585" y="706" width="150" height="85" as="geometry" />
        </mxCell>
        <mxCell id="tFIEXjJvMCMqe_9Ap2Vx-114" value="Worker" style="text;html=1;align=center;verticalAlign=middle;whiteSpace=wrap;rounded=0;fontFamily=Roboto;" vertex="1" parent="1">
          <mxGeometry x="-585" y="706" width="60" height="30" as="geometry" />
        </mxCell>
        <mxCell id="tFIEXjJvMCMqe_9Ap2Vx-115" value="" style="aspect=fixed;sketch=0;html=1;dashed=0;whitespace=wrap;fillColor=#2875E2;strokeColor=#ffffff;points=[[0.005,0.63,0],[0.1,0.2,0],[0.9,0.2,0],[0.5,0,0],[0.995,0.63,0],[0.72,0.99,0],[0.5,1,0],[0.28,0.99,0]];shape=mxgraph.kubernetes.icon2;kubernetesLabel=1;prIcon=pod" vertex="1" parent="1">
          <mxGeometry x="-576.67" y="736" width="26.04" height="25" as="geometry" />
        </mxCell>
        <mxCell id="tFIEXjJvMCMqe_9Ap2Vx-116" value="" style="aspect=fixed;sketch=0;html=1;dashed=0;whitespace=wrap;fillColor=#2875E2;strokeColor=#ffffff;points=[[0.005,0.63,0],[0.1,0.2,0],[0.9,0.2,0],[0.5,0,0],[0.995,0.63,0],[0.72,0.99,0],[0.5,1,0],[0.28,0.99,0]];shape=mxgraph.kubernetes.icon2;kubernetesLabel=1;prIcon=pod" vertex="1" parent="1">
          <mxGeometry x="-550.63" y="761" width="26.04" height="25" as="geometry" />
        </mxCell>
        <mxCell id="tFIEXjJvMCMqe_9Ap2Vx-117" value="" style="aspect=fixed;sketch=0;html=1;dashed=0;whitespace=wrap;fillColor=#2875E2;strokeColor=#ffffff;points=[[0.005,0.63,0],[0.1,0.2,0],[0.9,0.2,0],[0.5,0,0],[0.995,0.63,0],[0.72,0.99,0],[0.5,1,0],[0.28,0.99,0]];shape=mxgraph.kubernetes.icon2;kubernetesLabel=1;prIcon=pod" vertex="1" parent="1">
          <mxGeometry x="-535" y="736" width="26.04" height="25" as="geometry" />
        </mxCell>
        <mxCell id="tFIEXjJvMCMqe_9Ap2Vx-118" value="" style="aspect=fixed;sketch=0;html=1;dashed=0;whitespace=wrap;fillColor=#2875E2;strokeColor=#ffffff;points=[[0.005,0.63,0],[0.1,0.2,0],[0.9,0.2,0],[0.5,0,0],[0.995,0.63,0],[0.72,0.99,0],[0.5,1,0],[0.28,0.99,0]];shape=mxgraph.kubernetes.icon2;kubernetesLabel=1;prIcon=pod" vertex="1" parent="1">
          <mxGeometry x="-513.02" y="761" width="26.04" height="25" as="geometry" />
        </mxCell>
        <mxCell id="tFIEXjJvMCMqe_9Ap2Vx-119" value="" style="rounded=1;whiteSpace=wrap;html=1;arcSize=2;imageHeight=24;align=left;horizontal=0;imageVerticalAlign=top;fillColor=#d5e8d4;strokeColor=#82b366;" vertex="1" parent="1">
          <mxGeometry x="-755" y="814" width="150" height="85" as="geometry" />
        </mxCell>
        <mxCell id="tFIEXjJvMCMqe_9Ap2Vx-120" value="Worker" style="text;html=1;align=center;verticalAlign=middle;whiteSpace=wrap;rounded=0;fontFamily=Roboto;" vertex="1" parent="1">
          <mxGeometry x="-755" y="814" width="60" height="30" as="geometry" />
        </mxCell>
        <mxCell id="tFIEXjJvMCMqe_9Ap2Vx-121" value="" style="aspect=fixed;sketch=0;html=1;dashed=0;whitespace=wrap;fillColor=#2875E2;strokeColor=#ffffff;points=[[0.005,0.63,0],[0.1,0.2,0],[0.9,0.2,0],[0.5,0,0],[0.995,0.63,0],[0.72,0.99,0],[0.5,1,0],[0.28,0.99,0]];shape=mxgraph.kubernetes.icon2;kubernetesLabel=1;prIcon=pod" vertex="1" parent="1">
          <mxGeometry x="-746.67" y="844" width="26.04" height="25" as="geometry" />
        </mxCell>
        <mxCell id="tFIEXjJvMCMqe_9Ap2Vx-122" value="" style="aspect=fixed;sketch=0;html=1;dashed=0;whitespace=wrap;fillColor=#2875E2;strokeColor=#ffffff;points=[[0.005,0.63,0],[0.1,0.2,0],[0.9,0.2,0],[0.5,0,0],[0.995,0.63,0],[0.72,0.99,0],[0.5,1,0],[0.28,0.99,0]];shape=mxgraph.kubernetes.icon2;kubernetesLabel=1;prIcon=pod" vertex="1" parent="1">
          <mxGeometry x="-720.63" y="869" width="26.04" height="25" as="geometry" />
        </mxCell>
        <mxCell id="tFIEXjJvMCMqe_9Ap2Vx-123" value="" style="aspect=fixed;sketch=0;html=1;dashed=0;whitespace=wrap;fillColor=#2875E2;strokeColor=#ffffff;points=[[0.005,0.63,0],[0.1,0.2,0],[0.9,0.2,0],[0.5,0,0],[0.995,0.63,0],[0.72,0.99,0],[0.5,1,0],[0.28,0.99,0]];shape=mxgraph.kubernetes.icon2;kubernetesLabel=1;prIcon=pod" vertex="1" parent="1">
          <mxGeometry x="-705" y="844" width="26.04" height="25" as="geometry" />
        </mxCell>
        <mxCell id="tFIEXjJvMCMqe_9Ap2Vx-124" value="" style="aspect=fixed;sketch=0;html=1;dashed=0;whitespace=wrap;fillColor=#2875E2;strokeColor=#ffffff;points=[[0.005,0.63,0],[0.1,0.2,0],[0.9,0.2,0],[0.5,0,0],[0.995,0.63,0],[0.72,0.99,0],[0.5,1,0],[0.28,0.99,0]];shape=mxgraph.kubernetes.icon2;kubernetesLabel=1;prIcon=pod" vertex="1" parent="1">
          <mxGeometry x="-683.02" y="869" width="26.04" height="25" as="geometry" />
        </mxCell>
        <mxCell id="tFIEXjJvMCMqe_9Ap2Vx-125" value="" style="rounded=1;whiteSpace=wrap;html=1;arcSize=2;imageHeight=24;align=left;horizontal=0;imageVerticalAlign=top;fillColor=#d5e8d4;strokeColor=#82b366;" vertex="1" parent="1">
          <mxGeometry x="-585" y="814" width="150" height="85" as="geometry" />
        </mxCell>
        <mxCell id="tFIEXjJvMCMqe_9Ap2Vx-126" value="Worker" style="text;html=1;align=center;verticalAlign=middle;whiteSpace=wrap;rounded=0;fontFamily=Roboto;" vertex="1" parent="1">
          <mxGeometry x="-585" y="814" width="60" height="30" as="geometry" />
        </mxCell>
        <mxCell id="tFIEXjJvMCMqe_9Ap2Vx-127" value="" style="aspect=fixed;sketch=0;html=1;dashed=0;whitespace=wrap;fillColor=#2875E2;strokeColor=#ffffff;points=[[0.005,0.63,0],[0.1,0.2,0],[0.9,0.2,0],[0.5,0,0],[0.995,0.63,0],[0.72,0.99,0],[0.5,1,0],[0.28,0.99,0]];shape=mxgraph.kubernetes.icon2;kubernetesLabel=1;prIcon=pod" vertex="1" parent="1">
          <mxGeometry x="-576.67" y="844" width="26.04" height="25" as="geometry" />
        </mxCell>
        <mxCell id="tFIEXjJvMCMqe_9Ap2Vx-128" value="" style="aspect=fixed;sketch=0;html=1;dashed=0;whitespace=wrap;fillColor=#2875E2;strokeColor=#ffffff;points=[[0.005,0.63,0],[0.1,0.2,0],[0.9,0.2,0],[0.5,0,0],[0.995,0.63,0],[0.72,0.99,0],[0.5,1,0],[0.28,0.99,0]];shape=mxgraph.kubernetes.icon2;kubernetesLabel=1;prIcon=pod" vertex="1" parent="1">
          <mxGeometry x="-550.63" y="869" width="26.04" height="25" as="geometry" />
        </mxCell>
        <mxCell id="tFIEXjJvMCMqe_9Ap2Vx-129" value="" style="aspect=fixed;sketch=0;html=1;dashed=0;whitespace=wrap;fillColor=#2875E2;strokeColor=#ffffff;points=[[0.005,0.63,0],[0.1,0.2,0],[0.9,0.2,0],[0.5,0,0],[0.995,0.63,0],[0.72,0.99,0],[0.5,1,0],[0.28,0.99,0]];shape=mxgraph.kubernetes.icon2;kubernetesLabel=1;prIcon=pod" vertex="1" parent="1">
          <mxGeometry x="-535" y="844" width="26.04" height="25" as="geometry" />
        </mxCell>
        <mxCell id="tFIEXjJvMCMqe_9Ap2Vx-130" value="" style="aspect=fixed;sketch=0;html=1;dashed=0;whitespace=wrap;fillColor=#2875E2;strokeColor=#ffffff;points=[[0.005,0.63,0],[0.1,0.2,0],[0.9,0.2,0],[0.5,0,0],[0.995,0.63,0],[0.72,0.99,0],[0.5,1,0],[0.28,0.99,0]];shape=mxgraph.kubernetes.icon2;kubernetesLabel=1;prIcon=pod" vertex="1" parent="1">
          <mxGeometry x="-513.02" y="869" width="26.04" height="25" as="geometry" />
        </mxCell>
        <mxCell id="tFIEXjJvMCMqe_9Ap2Vx-131" value="" style="rounded=1;whiteSpace=wrap;html=1;arcSize=2;imageHeight=24;align=left;horizontal=0;imageVerticalAlign=top;fillColor=#ffe6cc;strokeColor=#d79b00;" vertex="1" parent="1">
          <mxGeometry x="-620" y="596" width="150" height="85" as="geometry" />
        </mxCell>
        <mxCell id="tFIEXjJvMCMqe_9Ap2Vx-132" value="Master" style="text;html=1;align=center;verticalAlign=middle;whiteSpace=wrap;rounded=0;fontFamily=Roboto;" vertex="1" parent="1">
          <mxGeometry x="-620" y="596" width="60" height="30" as="geometry" />
        </mxCell>
        <mxCell id="tFIEXjJvMCMqe_9Ap2Vx-133" value="" style="image;sketch=0;aspect=fixed;html=1;points=[];align=center;fontSize=12;image=img/lib/mscae/Kubernetes.svg;" vertex="1" parent="1">
          <mxGeometry x="-102.92000000000002" y="567" width="72.92" height="70" as="geometry" />
        </mxCell>
        <mxCell id="tFIEXjJvMCMqe_9Ap2Vx-134" value="Cluster3" style="text;html=1;align=center;verticalAlign=middle;whiteSpace=wrap;rounded=0;fontFamily=Roboto;fontSize=14;fontStyle=1" vertex="1" parent="1">
          <mxGeometry x="-789.5899999999999" y="587" width="60" height="30" as="geometry" />
        </mxCell>
        <mxCell id="tFIEXjJvMCMqe_9Ap2Vx-135" value="" style="aspect=fixed;sketch=0;html=1;dashed=0;whitespace=wrap;fillColor=#2875E2;strokeColor=#ffffff;points=[[0.005,0.63,0],[0.1,0.2,0],[0.9,0.2,0],[0.5,0,0],[0.995,0.63,0],[0.72,0.99,0],[0.5,1,0],[0.28,0.99,0]];shape=mxgraph.kubernetes.icon2;kubernetesLabel=1;prIcon=node" vertex="1" parent="1">
          <mxGeometry x="-506.98" y="587" width="50" height="48" as="geometry" />
        </mxCell>
        <mxCell id="tFIEXjJvMCMqe_9Ap2Vx-136" value="" style="aspect=fixed;sketch=0;html=1;dashed=0;whitespace=wrap;fillColor=#2875E2;strokeColor=#ffffff;points=[[0.005,0.63,0],[0.1,0.2,0],[0.9,0.2,0],[0.5,0,0],[0.995,0.63,0],[0.72,0.99,0],[0.5,1,0],[0.28,0.99,0]];shape=mxgraph.kubernetes.icon2;kubernetesLabel=1;prIcon=node" vertex="1" parent="1">
          <mxGeometry x="-645" y="693" width="50" height="48" as="geometry" />
        </mxCell>
        <mxCell id="tFIEXjJvMCMqe_9Ap2Vx-137" value="" style="aspect=fixed;sketch=0;html=1;dashed=0;whitespace=wrap;fillColor=#2875E2;strokeColor=#ffffff;points=[[0.005,0.63,0],[0.1,0.2,0],[0.9,0.2,0],[0.5,0,0],[0.995,0.63,0],[0.72,0.99,0],[0.5,1,0],[0.28,0.99,0]];shape=mxgraph.kubernetes.icon2;kubernetesLabel=1;prIcon=node" vertex="1" parent="1">
          <mxGeometry x="-475" y="697" width="50" height="48" as="geometry" />
        </mxCell>
        <mxCell id="tFIEXjJvMCMqe_9Ap2Vx-138" value="" style="aspect=fixed;sketch=0;html=1;dashed=0;whitespace=wrap;fillColor=#2875E2;strokeColor=#ffffff;points=[[0.005,0.63,0],[0.1,0.2,0],[0.9,0.2,0],[0.5,0,0],[0.995,0.63,0],[0.72,0.99,0],[0.5,1,0],[0.28,0.99,0]];shape=mxgraph.kubernetes.icon2;kubernetesLabel=1;prIcon=node" vertex="1" parent="1">
          <mxGeometry x="-645" y="805" width="50" height="48" as="geometry" />
        </mxCell>
        <mxCell id="tFIEXjJvMCMqe_9Ap2Vx-139" value="" style="aspect=fixed;sketch=0;html=1;dashed=0;whitespace=wrap;fillColor=#2875E2;strokeColor=#ffffff;points=[[0.005,0.63,0],[0.1,0.2,0],[0.9,0.2,0],[0.5,0,0],[0.995,0.63,0],[0.72,0.99,0],[0.5,1,0],[0.28,0.99,0]];shape=mxgraph.kubernetes.icon2;kubernetesLabel=1;prIcon=node" vertex="1" parent="1">
          <mxGeometry x="-475" y="805" width="50" height="48" as="geometry" />
        </mxCell>
        <mxCell id="tFIEXjJvMCMqe_9Ap2Vx-140" value="" style="rounded=1;whiteSpace=wrap;html=1;arcSize=2;imageHeight=24;align=left;horizontal=0;imageVerticalAlign=top;fillColor=#ffe6cc;strokeColor=#d79b00;" vertex="1" parent="1">
          <mxGeometry x="-386.51" y="600.5" width="150" height="85" as="geometry" />
        </mxCell>
        <mxCell id="tFIEXjJvMCMqe_9Ap2Vx-141" value="Master" style="text;html=1;align=center;verticalAlign=middle;whiteSpace=wrap;rounded=0;fontFamily=Roboto;" vertex="1" parent="1">
          <mxGeometry x="-386.51" y="600.5" width="60" height="30" as="geometry" />
        </mxCell>
        <mxCell id="tFIEXjJvMCMqe_9Ap2Vx-142" value="" style="aspect=fixed;sketch=0;html=1;dashed=0;whitespace=wrap;fillColor=#2875E2;strokeColor=#ffffff;points=[[0.005,0.63,0],[0.1,0.2,0],[0.9,0.2,0],[0.5,0,0],[0.995,0.63,0],[0.72,0.99,0],[0.5,1,0],[0.28,0.99,0]];shape=mxgraph.kubernetes.icon2;kubernetesLabel=1;prIcon=node" vertex="1" parent="1">
          <mxGeometry x="-273.49" y="591.5" width="50" height="48" as="geometry" />
        </mxCell>
        <mxCell id="tFIEXjJvMCMqe_9Ap2Vx-143" value="" style="rounded=1;whiteSpace=wrap;html=1;arcSize=2;imageHeight=24;align=left;horizontal=0;imageVerticalAlign=top;fillColor=#d5e8d4;strokeColor=#82b366;" vertex="1" parent="1">
          <mxGeometry x="-415" y="704" width="150" height="85" as="geometry" />
        </mxCell>
        <mxCell id="tFIEXjJvMCMqe_9Ap2Vx-144" value="Worker" style="text;html=1;align=center;verticalAlign=middle;whiteSpace=wrap;rounded=0;fontFamily=Roboto;" vertex="1" parent="1">
          <mxGeometry x="-415" y="704" width="60" height="30" as="geometry" />
        </mxCell>
        <mxCell id="tFIEXjJvMCMqe_9Ap2Vx-145" value="" style="aspect=fixed;sketch=0;html=1;dashed=0;whitespace=wrap;fillColor=#2875E2;strokeColor=#ffffff;points=[[0.005,0.63,0],[0.1,0.2,0],[0.9,0.2,0],[0.5,0,0],[0.995,0.63,0],[0.72,0.99,0],[0.5,1,0],[0.28,0.99,0]];shape=mxgraph.kubernetes.icon2;kubernetesLabel=1;prIcon=pod" vertex="1" parent="1">
          <mxGeometry x="-406.66999999999996" y="734" width="26.04" height="25" as="geometry" />
        </mxCell>
        <mxCell id="tFIEXjJvMCMqe_9Ap2Vx-146" value="" style="aspect=fixed;sketch=0;html=1;dashed=0;whitespace=wrap;fillColor=#2875E2;strokeColor=#ffffff;points=[[0.005,0.63,0],[0.1,0.2,0],[0.9,0.2,0],[0.5,0,0],[0.995,0.63,0],[0.72,0.99,0],[0.5,1,0],[0.28,0.99,0]];shape=mxgraph.kubernetes.icon2;kubernetesLabel=1;prIcon=pod" vertex="1" parent="1">
          <mxGeometry x="-380.63" y="759" width="26.04" height="25" as="geometry" />
        </mxCell>
        <mxCell id="tFIEXjJvMCMqe_9Ap2Vx-147" value="" style="aspect=fixed;sketch=0;html=1;dashed=0;whitespace=wrap;fillColor=#2875E2;strokeColor=#ffffff;points=[[0.005,0.63,0],[0.1,0.2,0],[0.9,0.2,0],[0.5,0,0],[0.995,0.63,0],[0.72,0.99,0],[0.5,1,0],[0.28,0.99,0]];shape=mxgraph.kubernetes.icon2;kubernetesLabel=1;prIcon=pod" vertex="1" parent="1">
          <mxGeometry x="-365" y="734" width="26.04" height="25" as="geometry" />
        </mxCell>
        <mxCell id="tFIEXjJvMCMqe_9Ap2Vx-148" value="" style="aspect=fixed;sketch=0;html=1;dashed=0;whitespace=wrap;fillColor=#2875E2;strokeColor=#ffffff;points=[[0.005,0.63,0],[0.1,0.2,0],[0.9,0.2,0],[0.5,0,0],[0.995,0.63,0],[0.72,0.99,0],[0.5,1,0],[0.28,0.99,0]];shape=mxgraph.kubernetes.icon2;kubernetesLabel=1;prIcon=pod" vertex="1" parent="1">
          <mxGeometry x="-343.02" y="759" width="26.04" height="25" as="geometry" />
        </mxCell>
        <mxCell id="tFIEXjJvMCMqe_9Ap2Vx-149" value="" style="rounded=1;whiteSpace=wrap;html=1;arcSize=2;imageHeight=24;align=left;horizontal=0;imageVerticalAlign=top;fillColor=#d5e8d4;strokeColor=#82b366;" vertex="1" parent="1">
          <mxGeometry x="-245" y="704" width="150" height="85" as="geometry" />
        </mxCell>
        <mxCell id="tFIEXjJvMCMqe_9Ap2Vx-150" value="Worker" style="text;html=1;align=center;verticalAlign=middle;whiteSpace=wrap;rounded=0;fontFamily=Roboto;" vertex="1" parent="1">
          <mxGeometry x="-245" y="704" width="60" height="30" as="geometry" />
        </mxCell>
        <mxCell id="tFIEXjJvMCMqe_9Ap2Vx-151" value="" style="aspect=fixed;sketch=0;html=1;dashed=0;whitespace=wrap;fillColor=#2875E2;strokeColor=#ffffff;points=[[0.005,0.63,0],[0.1,0.2,0],[0.9,0.2,0],[0.5,0,0],[0.995,0.63,0],[0.72,0.99,0],[0.5,1,0],[0.28,0.99,0]];shape=mxgraph.kubernetes.icon2;kubernetesLabel=1;prIcon=pod" vertex="1" parent="1">
          <mxGeometry x="-236.66999999999996" y="734" width="26.04" height="25" as="geometry" />
        </mxCell>
        <mxCell id="tFIEXjJvMCMqe_9Ap2Vx-152" value="" style="aspect=fixed;sketch=0;html=1;dashed=0;whitespace=wrap;fillColor=#2875E2;strokeColor=#ffffff;points=[[0.005,0.63,0],[0.1,0.2,0],[0.9,0.2,0],[0.5,0,0],[0.995,0.63,0],[0.72,0.99,0],[0.5,1,0],[0.28,0.99,0]];shape=mxgraph.kubernetes.icon2;kubernetesLabel=1;prIcon=pod" vertex="1" parent="1">
          <mxGeometry x="-210.63" y="759" width="26.04" height="25" as="geometry" />
        </mxCell>
        <mxCell id="tFIEXjJvMCMqe_9Ap2Vx-153" value="" style="aspect=fixed;sketch=0;html=1;dashed=0;whitespace=wrap;fillColor=#2875E2;strokeColor=#ffffff;points=[[0.005,0.63,0],[0.1,0.2,0],[0.9,0.2,0],[0.5,0,0],[0.995,0.63,0],[0.72,0.99,0],[0.5,1,0],[0.28,0.99,0]];shape=mxgraph.kubernetes.icon2;kubernetesLabel=1;prIcon=pod" vertex="1" parent="1">
          <mxGeometry x="-195" y="734" width="26.04" height="25" as="geometry" />
        </mxCell>
        <mxCell id="tFIEXjJvMCMqe_9Ap2Vx-154" value="" style="aspect=fixed;sketch=0;html=1;dashed=0;whitespace=wrap;fillColor=#2875E2;strokeColor=#ffffff;points=[[0.005,0.63,0],[0.1,0.2,0],[0.9,0.2,0],[0.5,0,0],[0.995,0.63,0],[0.72,0.99,0],[0.5,1,0],[0.28,0.99,0]];shape=mxgraph.kubernetes.icon2;kubernetesLabel=1;prIcon=pod" vertex="1" parent="1">
          <mxGeometry x="-173.01999999999998" y="759" width="26.04" height="25" as="geometry" />
        </mxCell>
        <mxCell id="tFIEXjJvMCMqe_9Ap2Vx-155" value="" style="rounded=1;whiteSpace=wrap;html=1;arcSize=2;imageHeight=24;align=left;horizontal=0;imageVerticalAlign=top;fillColor=#d5e8d4;strokeColor=#82b366;" vertex="1" parent="1">
          <mxGeometry x="-415" y="812" width="150" height="85" as="geometry" />
        </mxCell>
        <mxCell id="tFIEXjJvMCMqe_9Ap2Vx-156" value="Worker" style="text;html=1;align=center;verticalAlign=middle;whiteSpace=wrap;rounded=0;fontFamily=Roboto;" vertex="1" parent="1">
          <mxGeometry x="-415" y="812" width="60" height="30" as="geometry" />
        </mxCell>
        <mxCell id="tFIEXjJvMCMqe_9Ap2Vx-157" value="" style="aspect=fixed;sketch=0;html=1;dashed=0;whitespace=wrap;fillColor=#2875E2;strokeColor=#ffffff;points=[[0.005,0.63,0],[0.1,0.2,0],[0.9,0.2,0],[0.5,0,0],[0.995,0.63,0],[0.72,0.99,0],[0.5,1,0],[0.28,0.99,0]];shape=mxgraph.kubernetes.icon2;kubernetesLabel=1;prIcon=pod" vertex="1" parent="1">
          <mxGeometry x="-406.66999999999996" y="842" width="26.04" height="25" as="geometry" />
        </mxCell>
        <mxCell id="tFIEXjJvMCMqe_9Ap2Vx-158" value="" style="aspect=fixed;sketch=0;html=1;dashed=0;whitespace=wrap;fillColor=#2875E2;strokeColor=#ffffff;points=[[0.005,0.63,0],[0.1,0.2,0],[0.9,0.2,0],[0.5,0,0],[0.995,0.63,0],[0.72,0.99,0],[0.5,1,0],[0.28,0.99,0]];shape=mxgraph.kubernetes.icon2;kubernetesLabel=1;prIcon=pod" vertex="1" parent="1">
          <mxGeometry x="-380.63" y="867" width="26.04" height="25" as="geometry" />
        </mxCell>
        <mxCell id="tFIEXjJvMCMqe_9Ap2Vx-159" value="" style="aspect=fixed;sketch=0;html=1;dashed=0;whitespace=wrap;fillColor=#2875E2;strokeColor=#ffffff;points=[[0.005,0.63,0],[0.1,0.2,0],[0.9,0.2,0],[0.5,0,0],[0.995,0.63,0],[0.72,0.99,0],[0.5,1,0],[0.28,0.99,0]];shape=mxgraph.kubernetes.icon2;kubernetesLabel=1;prIcon=pod" vertex="1" parent="1">
          <mxGeometry x="-365" y="842" width="26.04" height="25" as="geometry" />
        </mxCell>
        <mxCell id="tFIEXjJvMCMqe_9Ap2Vx-160" value="" style="aspect=fixed;sketch=0;html=1;dashed=0;whitespace=wrap;fillColor=#2875E2;strokeColor=#ffffff;points=[[0.005,0.63,0],[0.1,0.2,0],[0.9,0.2,0],[0.5,0,0],[0.995,0.63,0],[0.72,0.99,0],[0.5,1,0],[0.28,0.99,0]];shape=mxgraph.kubernetes.icon2;kubernetesLabel=1;prIcon=pod" vertex="1" parent="1">
          <mxGeometry x="-343.02" y="867" width="26.04" height="25" as="geometry" />
        </mxCell>
        <mxCell id="tFIEXjJvMCMqe_9Ap2Vx-161" value="" style="rounded=1;whiteSpace=wrap;html=1;arcSize=2;imageHeight=24;align=left;horizontal=0;imageVerticalAlign=top;fillColor=#d5e8d4;strokeColor=#82b366;" vertex="1" parent="1">
          <mxGeometry x="-245" y="812" width="150" height="85" as="geometry" />
        </mxCell>
        <mxCell id="tFIEXjJvMCMqe_9Ap2Vx-162" value="Worker" style="text;html=1;align=center;verticalAlign=middle;whiteSpace=wrap;rounded=0;fontFamily=Roboto;" vertex="1" parent="1">
          <mxGeometry x="-245" y="812" width="60" height="30" as="geometry" />
        </mxCell>
        <mxCell id="tFIEXjJvMCMqe_9Ap2Vx-163" value="" style="aspect=fixed;sketch=0;html=1;dashed=0;whitespace=wrap;fillColor=#2875E2;strokeColor=#ffffff;points=[[0.005,0.63,0],[0.1,0.2,0],[0.9,0.2,0],[0.5,0,0],[0.995,0.63,0],[0.72,0.99,0],[0.5,1,0],[0.28,0.99,0]];shape=mxgraph.kubernetes.icon2;kubernetesLabel=1;prIcon=pod" vertex="1" parent="1">
          <mxGeometry x="-236.66999999999996" y="842" width="26.04" height="25" as="geometry" />
        </mxCell>
        <mxCell id="tFIEXjJvMCMqe_9Ap2Vx-164" value="" style="aspect=fixed;sketch=0;html=1;dashed=0;whitespace=wrap;fillColor=#2875E2;strokeColor=#ffffff;points=[[0.005,0.63,0],[0.1,0.2,0],[0.9,0.2,0],[0.5,0,0],[0.995,0.63,0],[0.72,0.99,0],[0.5,1,0],[0.28,0.99,0]];shape=mxgraph.kubernetes.icon2;kubernetesLabel=1;prIcon=pod" vertex="1" parent="1">
          <mxGeometry x="-210.63" y="867" width="26.04" height="25" as="geometry" />
        </mxCell>
        <mxCell id="tFIEXjJvMCMqe_9Ap2Vx-165" value="" style="aspect=fixed;sketch=0;html=1;dashed=0;whitespace=wrap;fillColor=#2875E2;strokeColor=#ffffff;points=[[0.005,0.63,0],[0.1,0.2,0],[0.9,0.2,0],[0.5,0,0],[0.995,0.63,0],[0.72,0.99,0],[0.5,1,0],[0.28,0.99,0]];shape=mxgraph.kubernetes.icon2;kubernetesLabel=1;prIcon=pod" vertex="1" parent="1">
          <mxGeometry x="-195" y="842" width="26.04" height="25" as="geometry" />
        </mxCell>
        <mxCell id="tFIEXjJvMCMqe_9Ap2Vx-166" value="" style="aspect=fixed;sketch=0;html=1;dashed=0;whitespace=wrap;fillColor=#2875E2;strokeColor=#ffffff;points=[[0.005,0.63,0],[0.1,0.2,0],[0.9,0.2,0],[0.5,0,0],[0.995,0.63,0],[0.72,0.99,0],[0.5,1,0],[0.28,0.99,0]];shape=mxgraph.kubernetes.icon2;kubernetesLabel=1;prIcon=pod" vertex="1" parent="1">
          <mxGeometry x="-173.01999999999998" y="867" width="26.04" height="25" as="geometry" />
        </mxCell>
        <mxCell id="tFIEXjJvMCMqe_9Ap2Vx-167" value="" style="aspect=fixed;sketch=0;html=1;dashed=0;whitespace=wrap;fillColor=#2875E2;strokeColor=#ffffff;points=[[0.005,0.63,0],[0.1,0.2,0],[0.9,0.2,0],[0.5,0,0],[0.995,0.63,0],[0.72,0.99,0],[0.5,1,0],[0.28,0.99,0]];shape=mxgraph.kubernetes.icon2;kubernetesLabel=1;prIcon=node" vertex="1" parent="1">
          <mxGeometry x="-305" y="691" width="50" height="48" as="geometry" />
        </mxCell>
        <mxCell id="tFIEXjJvMCMqe_9Ap2Vx-168" value="" style="aspect=fixed;sketch=0;html=1;dashed=0;whitespace=wrap;fillColor=#2875E2;strokeColor=#ffffff;points=[[0.005,0.63,0],[0.1,0.2,0],[0.9,0.2,0],[0.5,0,0],[0.995,0.63,0],[0.72,0.99,0],[0.5,1,0],[0.28,0.99,0]];shape=mxgraph.kubernetes.icon2;kubernetesLabel=1;prIcon=node" vertex="1" parent="1">
          <mxGeometry x="-135" y="695" width="50" height="48" as="geometry" />
        </mxCell>
        <mxCell id="tFIEXjJvMCMqe_9Ap2Vx-169" value="" style="aspect=fixed;sketch=0;html=1;dashed=0;whitespace=wrap;fillColor=#2875E2;strokeColor=#ffffff;points=[[0.005,0.63,0],[0.1,0.2,0],[0.9,0.2,0],[0.5,0,0],[0.995,0.63,0],[0.72,0.99,0],[0.5,1,0],[0.28,0.99,0]];shape=mxgraph.kubernetes.icon2;kubernetesLabel=1;prIcon=node" vertex="1" parent="1">
          <mxGeometry x="-305" y="803" width="50" height="48" as="geometry" />
        </mxCell>
        <mxCell id="tFIEXjJvMCMqe_9Ap2Vx-170" value="" style="aspect=fixed;sketch=0;html=1;dashed=0;whitespace=wrap;fillColor=#2875E2;strokeColor=#ffffff;points=[[0.005,0.63,0],[0.1,0.2,0],[0.9,0.2,0],[0.5,0,0],[0.995,0.63,0],[0.72,0.99,0],[0.5,1,0],[0.28,0.99,0]];shape=mxgraph.kubernetes.icon2;kubernetesLabel=1;prIcon=node" vertex="1" parent="1">
          <mxGeometry x="-135" y="803" width="50" height="48" as="geometry" />
        </mxCell>
      </root>
    </mxGraphModel>
  </diagram>
</mxfile>
